<svg width="325" height="246" viewBox="0 0 325 246" fill="none" xmlns="http://www.w3.org/2000/svg">
<g clip-path="url(#clip0_179_14351)">
<path d="M211.883 100.946C211.173 101.049 210.449 100.994 209.762 100.787C209.076 100.579 208.443 100.223 207.908 99.744C207.374 99.265 206.95 98.6746 206.668 98.0142C206.386 97.3538 206.252 96.6395 206.275 95.9216L189.995 89.6578L197.367 84.3787L211.696 91.1362C212.898 91.2556 214.015 91.8125 214.835 92.7012C215.654 93.59 216.12 94.7489 216.143 95.9583C216.166 97.1677 215.745 98.3435 214.959 99.2629C214.174 100.182 213.08 100.781 211.883 100.946L211.883 100.946Z" fill="#FFB7B7"/>
<path d="M202.58 96.4528L205.122 87.4758L204.997 87.3905L181.187 71.1969L160.604 50.5202L148.615 55.3162L149.402 59.1155L149.453 59.1622L176.819 83.7022L176.844 83.7146L202.58 96.4528Z" fill="#E6E7E8"/>
<path d="M178.188 116.958L141.339 111.786L144.582 89.1483H171.711L178.188 116.958Z" fill="#FFB6B6"/>
<path d="M115.575 227.809L123.135 229.567L133.507 201.214L122.351 198.618L115.575 227.809Z" fill="#FFB6B6"/>
<path d="M108.542 239.993L113.963 241.254L116.12 236.355L117.409 242.056L131.786 245.401C132.475 245.561 133.197 245.497 133.847 245.217C134.497 244.937 135.041 244.457 135.399 243.846C135.757 243.235 135.911 242.525 135.837 241.821C135.764 241.116 135.468 240.454 134.991 239.93L125.353 229.32L126.555 224.139L114.311 222.051L108.542 239.993Z" fill="#2F2E41"/>
<path d="M162.216 232.026H169.977L173.67 202.057H162.216V232.026Z" fill="#FFB6B6"/>
<path d="M158.12 245.488H163.686L164.679 240.227L167.223 245.488H181.983C182.691 245.488 183.38 245.261 183.95 244.842C184.52 244.422 184.941 243.831 185.151 243.154C185.362 242.478 185.351 241.752 185.12 241.082C184.89 240.413 184.451 239.835 183.869 239.432L172.082 231.282V225.964L159.684 226.704L158.12 245.488Z" fill="#2F2E41"/>
<path d="M140.873 107.945L176.91 105.075C187.544 129.945 180.782 169.649 172.61 214.343L161.019 215.843L160.12 144.025L131.063 210.837L118.982 210.219L140.873 107.945Z" fill="#2F2E41"/>
<path d="M161.85 42.4535V30.2471C161.851 28.0985 161.429 25.9707 160.608 23.9854C159.788 22 158.585 20.1959 157.068 18.6762C155.55 17.1565 153.749 15.951 151.766 15.1285C149.784 14.306 147.659 13.8827 145.513 13.8827C143.367 13.8827 141.242 14.306 139.259 15.1285C137.276 15.951 135.475 17.1565 133.958 18.6762C132.441 20.1959 131.238 22 130.417 23.9854C129.597 25.9707 129.175 28.0985 129.176 30.2471C126.297 36.2544 128.098 39.1104 129.176 42.4535C129.177 43.0356 129.408 43.5937 129.819 44.0053C130.231 44.4169 130.788 44.6486 131.369 44.6496H159.655C160.237 44.6489 160.794 44.4173 161.206 44.0057C161.617 43.594 161.849 43.0358 161.85 42.4535Z" fill="#2F2E41"/>
<path d="M149.544 44.4655C156.159 44.4655 161.522 39.0966 161.522 32.4736C161.522 25.8506 156.159 20.4816 149.544 20.4816C142.929 20.4816 137.567 25.8506 137.567 32.4736C137.567 39.0966 142.929 44.4655 149.544 44.4655Z" fill="#FFB7B7"/>
<path d="M165.714 31.2234C165.71 27.7931 164.348 24.5044 161.925 22.0788C159.502 19.6532 156.218 18.2888 152.791 18.285H150.353C146.927 18.2888 143.642 19.6532 141.219 22.0788C138.796 24.5044 137.434 27.7931 137.43 31.2234V31.4676C139.256 32.7175 140.99 32.9004 142.583 31.4676L144.34 26.5404L144.692 31.4675H147.356L148.243 28.9817L148.421 31.4676C152.019 34.5351 158.821 33.0651 165.714 31.4676L165.714 31.2234Z" fill="#2F2E41"/>
<path d="M142.56 95.7647L173.056 94.6029L174.761 74.6285C176.076 70.9724 176.097 67.8309 174.824 65.298C173.729 63.2161 171.89 61.6245 169.674 60.8414L163.001 52.7722C162.143 51.7351 161.065 50.9018 159.845 50.3327C158.626 49.7635 157.296 49.4727 155.95 49.4811L138.611 49.5998C138.193 49.3483 135.658 48.0583 130.659 50.2273C125.236 52.5803 126.495 60.7552 126.509 60.8373L126.521 60.9141L126.581 60.9664L138.113 70.6922L142.56 95.7647Z" fill="#E6E7E8"/>
<path d="M0.511659 246H306.717C306.853 246 306.983 245.946 307.079 245.85C307.175 245.754 307.229 245.624 307.229 245.488C307.229 245.352 307.175 245.222 307.079 245.126C306.983 245.029 306.853 244.975 306.717 244.975H0.511659C0.37596 244.975 0.245819 245.029 0.149865 245.126C0.0539112 245.222 0 245.352 0 245.488C0 245.624 0.0539112 245.754 0.149865 245.85C0.245819 245.946 0.37596 246 0.511659 246Z" fill="#CCCCCC"/>
<path d="M223.465 124.757C223.442 136.393 219.072 147.6 211.215 156.174C203.357 164.749 192.58 170.07 181.003 171.092C169.425 172.114 157.885 168.764 148.649 161.699C139.414 154.634 133.153 144.365 131.096 132.913C129.04 121.46 131.336 109.651 137.535 99.8081C143.734 89.9649 153.386 82.7992 164.594 79.7199C175.802 76.6405 187.756 77.8702 198.104 83.1672C208.453 88.4642 216.448 97.4453 220.518 108.345C220.619 108.619 220.718 108.892 220.814 109.169V109.171C221.244 110.386 221.622 111.623 221.95 112.883C222.959 116.76 223.468 120.75 223.465 124.757Z" fill="#3F3D56"/>
<path d="M171.472 93.0997C169.366 91.9594 167.028 91.3157 164.635 91.2178C162.243 91.1198 159.86 91.57 157.668 92.5343C155.738 93.3752 153.705 94.8839 153.061 97.6082C155.665 96.0695 159.036 98.5006 159.706 102.401L159.55 102.444C159.196 105.145 159.986 108.086 161.516 109.761C161.63 109.005 161.91 108.284 162.337 107.651C162.764 107.017 163.326 106.486 163.983 106.097C165.107 105.358 166.35 104.82 167.208 103.549C168.225 102.042 168.483 99.8388 168.887 97.8292C169.291 95.8196 170.058 93.6597 171.472 93.0997Z" fill="#386A1F"/>
<path d="M156.895 116.087C156.174 117.171 155.211 117.852 154.346 118.699C153.348 119.608 152.694 120.833 152.492 122.168C152.383 123.112 152.552 124.071 152.529 125.025C152.505 125.979 152.188 127.053 151.54 127.291C150.516 127.661 149.735 125.758 148.683 125.625C147.848 125.521 147.095 126.837 147.337 127.979C147.579 129.121 148.717 129.626 149.371 128.881C149.962 129.874 149.545 131.675 148.657 131.98C148.564 132.606 148.47 133.229 148.379 133.854C146.134 132.282 143.867 130.685 141.958 128.383C139.836 125.845 138.519 122.729 138.178 119.437C137.93 116.791 138.297 113.764 137.084 111.728C136.113 110.099 134.447 109.739 132.947 109.841C132.674 109.859 132.398 109.891 132.124 109.925C133.009 107.265 134.132 104.691 135.48 102.235C135.785 102.104 136.069 101.927 136.321 101.711C137.717 100.525 138.336 98.1239 139.469 96.4634C139.542 96.3565 139.617 96.2522 139.696 96.1506C140.854 94.6361 142.406 93.8566 143.906 93.132C147.225 91.5184 150.641 89.884 154.146 90.1082L153.149 90.2046C151.985 93.4682 150.82 96.7319 149.654 99.9955C149.477 100.496 149.299 100.997 149.118 101.5C148.457 103.356 147.775 105.331 147.876 107.409C147.936 108.639 148.363 109.953 149.175 110.376C149.933 110.767 150.761 110.287 151.493 109.812C151.802 109.614 152.11 109.416 152.419 109.215C153.531 108.499 154.763 107.764 155.937 108.243C157.012 108.681 157.806 110.143 157.957 111.721C158.096 113.254 157.722 114.789 156.895 116.087Z" fill="#386A1F"/>
<path d="M163.507 138.368C160.26 136.367 157.013 134.365 153.766 132.364L153.821 132.222C151.803 132.991 150.964 136.584 151.298 139.522C151.632 142.461 152.763 145.087 153.335 147.95C154.105 151.868 153.814 155.921 152.492 159.688C156.762 154.891 160.54 149.679 163.771 144.127C164.222 143.428 164.566 142.664 164.791 141.862C165.03 141.008 164.945 140.095 164.553 139.3C164.287 138.907 163.928 138.587 163.507 138.368Z" fill="#386A1F"/>
<path d="M150.693 101.954C150.311 102.773 150.253 103.707 150.528 104.568C150.848 105.262 151.43 105.8 152.145 106.067L153.939 106.958C154.536 107.254 155.179 107.553 155.788 107.309C156.522 107.015 157.031 105.863 156.899 104.794C156.759 103.656 156.042 102.873 155.38 102.207C154.452 101.274 153.525 100.341 152.598 99.4083L152.075 100.049C151.51 100.601 151.043 101.245 150.693 101.954Z" fill="#386A1F"/>
<path d="M213.847 114.119C214.654 114.309 215.461 114.499 216.268 114.69C216.128 117.419 214.776 119.945 212.964 120.86C212.209 121.24 211.368 121.381 210.743 122.093C210.178 122.739 209.892 123.745 209.629 124.707C209.168 126.386 208.707 128.065 208.247 129.743C207.752 131.553 207.117 133.562 205.83 134.214C204.726 134.774 203.464 134.089 202.615 132.939C201.766 131.79 201.248 130.244 200.746 128.737C200.777 130.38 200.014 131.991 198.933 132.561C197.85 133.132 196.533 132.616 195.809 131.341C195.288 130.426 195.072 129.22 194.562 128.292C194.052 127.364 192.982 126.832 192.424 127.702C192.057 128.281 192.104 129.167 191.922 129.903C191.83 130.391 191.589 130.838 191.231 131.182C190.874 131.526 190.418 131.751 189.927 131.824C189.476 131.813 189.032 131.711 188.621 131.523C188.211 131.336 187.843 131.066 187.54 130.731C185.946 129.099 184.908 127.003 184.574 124.744C184.348 123.661 184.377 122.54 184.658 121.47C184.978 120.456 185.751 119.674 186.519 119.867C187.024 118.798 186.027 117.38 185.129 117.505C184.228 117.63 183.523 118.597 182.783 119.34C182.046 120.083 181.015 120.623 180.273 119.885C180.29 120.155 180.199 120.42 180.02 120.623C179.841 120.825 179.589 120.948 179.32 120.965C179.293 120.967 179.266 120.967 179.24 120.967C178.746 120.825 178.288 120.582 177.893 120.252C176.193 119.191 174.035 119.895 172.827 121.902C173.582 118.686 174.688 114.995 177.008 114.239C177.956 113.928 178.99 114.184 179.885 113.647C181.471 112.696 181.791 109.101 180.422 107.618C180.596 109.02 180.562 110.657 179.823 111.616C179.083 112.576 177.532 111.95 177.625 110.532C177.604 110.731 177.521 110.919 177.387 111.068C177.253 111.217 177.075 111.32 176.879 111.361C176.683 111.403 176.479 111.382 176.296 111.3C176.113 111.218 175.96 111.081 175.86 110.907C175.368 110.157 175.41 108.929 175.759 108.032C176.118 107.22 176.634 106.487 177.276 105.874C178.513 104.547 179.768 103.204 181.2 102.37C182.635 101.536 184.291 101.255 185.728 102.084C186.486 102.521 187.152 103.251 187.925 103.637C188.107 103.75 188.309 103.826 188.52 103.861C188.731 103.895 188.947 103.888 189.155 103.839C189.363 103.79 189.56 103.701 189.734 103.576C189.907 103.451 190.055 103.293 190.168 103.111C190.176 103.097 190.185 103.083 190.193 103.069C190.768 102.057 190.498 100.556 190.711 99.2917C191.094 97.0578 193.325 96.0125 194.562 97.4878C193.638 97.2507 192.682 98.3455 192.568 99.6723C192.45 100.999 193.12 102.339 194.015 102.74C195.52 103.408 196.994 101.729 198.132 100.175C199.319 98.5488 200.508 96.9231 201.699 95.2982C201.889 95.0216 202.102 94.7617 202.336 94.5214C202.709 94.1575 203.206 93.9491 203.727 93.9384C204.248 93.9278 204.753 94.1157 205.14 94.4641C206.343 95.4468 206.908 97.4618 207.895 98.8486C209.327 100.864 211.47 101.354 213.464 101.745C214.951 102.034 216.438 102.325 217.927 102.618C218.919 104.466 219.785 106.379 220.518 108.345C217.788 109.591 215.473 111.595 213.847 114.119Z" fill="#386A1F"/>
<path d="M221.95 112.883C221.645 113.783 221.478 114.725 221.455 115.675C220.179 114.116 219.976 111.194 220.814 109.171C221.244 110.386 221.622 111.623 221.95 112.883Z" fill="#386A1F"/>
<path d="M218.653 145.483C217.538 147.751 216.24 149.924 214.774 151.981C213.837 151.58 212.829 152.297 211.952 152.969C211.035 153.673 209.934 154.359 208.994 153.718C208.033 153.061 207.723 151.223 208.028 149.766C208.378 148.422 208.99 147.16 209.83 146.054C210.611 144.886 211.446 143.674 212.532 143.22C213.62 142.767 215.019 143.408 215.336 144.956L216.107 144.93C215.675 144.336 215.901 143.106 216.482 142.889C217.151 142.636 217.732 143.556 218.127 144.37C218.304 144.737 218.484 145.108 218.653 145.483Z" fill="#386A1F"/>
<path d="M189.137 134.472C187.481 134.577 186.168 132.535 185.297 130.526C184.425 128.518 183.629 126.221 182.134 125.199C181.28 124.614 180.307 124.534 179.38 124.251C178.855 124.118 178.369 123.862 177.962 123.503C177.555 123.145 177.24 122.694 177.041 122.189L175.991 121.764C174.521 122.5 173.175 123.461 172.001 124.613C170.66 126.039 169.825 127.867 169.624 129.816C169.423 131.922 170.164 134.27 171.549 135.061C172.644 135.686 173.918 135.292 175.026 135.864C176.411 136.579 177.234 138.656 177.545 140.706C177.856 142.757 177.777 144.888 178 146.962C178.223 149.036 178.836 151.194 180.106 152.256C181.696 153.586 184.028 152.481 184.741 150.06C185.091 148.873 185.079 147.533 185.341 146.3C185.801 144.129 187.045 142.519 188.031 140.738C189.017 138.957 189.793 136.539 189.137 134.472Z" fill="#386A1F"/>
<path d="M172.768 113.141C172.923 113.283 173.067 113.437 173.2 113.6C173.337 113.837 173.407 114.107 173.402 114.381C173.398 114.655 173.318 114.923 173.173 115.155C173.373 115.144 173.568 115.091 173.746 115C173.924 114.91 174.081 114.783 174.208 114.628C174.511 114.284 174.777 113.908 175.002 113.509C175.108 113.372 175.184 113.214 175.224 113.046C175.264 112.878 175.268 112.703 175.236 112.533C175.158 112.309 174.973 112.214 174.843 112.046C174.663 111.717 174.54 111.36 174.48 110.99C174.408 110.643 174.241 110.323 173.997 110.066C173.754 109.81 173.444 109.626 173.102 109.536L173.185 109.552C173.043 109.635 172.932 109.762 172.866 109.912C172.799 110.063 172.782 110.23 172.816 110.391C172.866 110.717 173.075 110.987 173.054 111.318C173.024 111.796 172.548 112.019 172.519 112.497C172.514 112.736 172.604 112.967 172.768 113.141Z" fill="#386A1F"/>
<path d="M169.93 105.034L169.937 105.033C169.988 104.986 170.036 104.936 170.079 104.882L169.93 105.034Z" fill="#386A1F"/>
<path d="M170.427 107.273C170.626 107.099 170.773 106.872 170.852 106.62C170.932 106.367 170.94 106.097 170.877 105.84C170.756 105.297 170.33 104.932 169.937 105.033C169.824 105.148 169.682 105.233 169.526 105.279C169.371 105.325 169.206 105.33 169.047 105.295C168.805 105.232 168.538 105.071 168.327 105.254C168.207 105.391 168.122 105.556 168.082 105.734C168.004 105.974 167.926 106.213 167.848 106.453C167.811 106.539 167.801 106.634 167.82 106.725C167.835 106.762 167.859 106.794 167.89 106.819C167.921 106.843 167.958 106.86 167.997 106.866C168.465 107.004 168.933 107.142 169.401 107.28C169.562 107.354 169.737 107.392 169.914 107.391C170.092 107.39 170.267 107.35 170.427 107.273Z" fill="#386A1F"/>
<path d="M205.743 138.189C205.527 137.834 205.31 137.48 205.094 137.126C204.882 136.715 204.591 136.35 204.239 136.051C204.163 135.987 204.075 135.939 203.98 135.909C203.885 135.879 203.785 135.868 203.686 135.877C203.587 135.886 203.491 135.914 203.403 135.96C203.314 136.006 203.236 136.069 203.172 136.145L203.161 136.159L203.187 136.361C203.766 136.983 204.161 137.754 204.327 138.587C204.376 138.95 204.359 139.324 204.402 139.688C204.407 139.857 204.444 140.023 204.513 140.177C204.582 140.331 204.68 140.47 204.803 140.586C205.143 140.814 205.543 140.478 205.785 140.068C206.002 139.732 206.099 139.332 206.061 138.934C206.007 138.666 205.899 138.413 205.743 138.189Z" fill="#386A1F"/>
<path d="M209.135 138.65C209.176 138.318 209.15 137.982 209.056 137.661C209.041 137.226 209.156 136.797 209.386 136.429C209.615 136.082 209.789 135.701 209.901 135.3C209.948 135.117 209.939 134.924 209.876 134.747C209.805 134.586 209.631 134.512 209.532 134.64L209.745 134.777C209.457 134.725 209.162 134.74 208.881 134.819C208.721 134.88 208.577 134.979 208.463 135.108C208.349 135.237 208.268 135.391 208.226 135.557C208.191 135.817 208.134 136.074 208.055 136.324C207.928 136.585 207.682 136.672 207.528 136.901C207.422 137.105 207.369 137.331 207.373 137.56C207.377 137.789 207.437 138.013 207.549 138.213C207.743 138.54 208.051 138.782 208.414 138.894C208.674 138.987 209.016 138.992 209.135 138.65Z" fill="#386A1F"/>
<path d="M215.176 140.475C215.27 140.72 215.396 140.951 215.551 141.163C215.84 141.455 216.233 141.275 216.584 141.204C216.902 141.154 217.228 141.191 217.527 141.311C217.826 141.431 218.088 141.63 218.283 141.887C218.147 141.207 217.85 140.571 217.417 140.03C216.984 139.489 216.428 139.06 215.795 138.78C214.973 138.495 214.107 138.359 213.237 138.379L213.089 138.417C213.467 139.52 214.656 139.496 215.176 140.475Z" fill="#386A1F"/>
<path d="M189.59 142.732L189.592 142.737L189.636 142.653L189.59 142.732Z" fill="#386A1F"/>
<path d="M188.674 144.508C188.474 144.871 188.302 145.249 188.16 145.639C187.971 146.269 187.846 146.918 187.787 147.573C187.74 147.946 187.726 148.423 187.959 148.604C188.026 148.649 188.107 148.667 188.187 148.656C188.267 148.646 188.34 148.606 188.392 148.545C188.522 148.408 188.628 148.25 188.706 148.078C189.165 147.287 189.521 146.441 189.766 145.56C190.022 144.626 189.961 143.633 189.592 142.737C189.286 143.327 188.98 143.917 188.674 144.508Z" fill="#386A1F"/>
<path d="M179.833 97.1915C179.978 97.334 180.162 97.4307 180.362 97.4697C180.562 97.5088 180.769 97.4884 180.957 97.4112C181.347 97.2405 181.705 97.0038 182.015 96.7116C182.272 96.5214 182.49 96.2836 182.657 96.0111C182.749 95.8482 182.807 95.6688 182.83 95.483C182.852 95.2973 182.838 95.109 182.788 94.9288C182.716 94.7562 182.602 94.6048 182.455 94.4888C182.309 94.3728 182.135 94.2962 181.951 94.266C181.432 94.1119 180.912 93.9577 180.393 93.8036L180.769 93.4646C180.382 93.257 179.955 93.6423 179.713 94.1195C179.558 94.431 179.45 94.7638 179.393 95.107C179.311 95.4656 179.307 95.8378 179.383 96.1978C179.459 96.5578 179.613 96.8969 179.833 97.1915Z" fill="#386A1F"/>
<path d="M189 94.1103C189.146 94.2718 189.349 94.3716 189.566 94.3893C189.783 94.4069 189.999 94.3413 190.169 94.2055C190.316 94.0952 190.438 93.9551 190.527 93.7944C190.616 93.6338 190.67 93.4561 190.686 93.2731C190.723 92.8641 190.521 92.4097 190.233 92.3743L190.299 91.9915C189.743 91.891 189.059 91.8709 188.761 92.5464C188.661 92.8052 188.63 93.0858 188.672 93.3603C188.714 93.6347 188.827 93.8933 189 94.1103Z" fill="#386A1F"/>
<path d="M134.272 135.085C133.739 134.605 133.316 134.014 133.036 133.353C132.755 132.692 132.622 131.978 132.647 131.26C132.671 130.542 132.853 129.838 133.178 129.198C133.504 128.558 133.965 127.998 134.531 127.555L128.899 111.029L137.673 113.311L141.672 128.654C142.351 129.654 142.64 130.87 142.484 132.069C142.328 133.269 141.738 134.37 140.826 135.163C139.913 135.956 138.741 136.386 137.533 136.372C136.325 136.357 135.164 135.9 134.27 135.085L134.272 135.085Z" fill="#FFB7B7"/>
<path d="M131.756 125.056L140.269 121.258L137.409 92.4292L140.073 63.3597L128.707 57.2183L126.299 60.2584V60.3274L125.023 97.0866L125.03 97.1143L131.756 125.056Z" fill="#E6E7E8"/>
<path d="M262.168 210.963C257.355 208.747 252.163 206.136 246.592 203.13C217.78 187.579 182.351 163.319 146.83 134.821C111.309 106.322 79.94 76.9887 58.5022 52.2247C48.0594 40.1611 40.5372 29.83 36.145 21.5179C31.4947 12.718 30.5568 6.48197 33.3569 2.9834C38.8123 -3.83228 56.5785 2.3067 70.5219 8.65692L70.0124 9.77878C50.8645 1.05818 38.1878 -1.08129 34.3176 3.75419C29.3881 9.91278 38.5422 27.2852 59.4324 51.4174C80.823 76.1271 112.134 105.406 147.599 133.859C183.064 162.312 218.428 186.528 247.177 202.045C275.252 217.199 294.182 222.358 299.112 216.199C303.204 211.086 297.622 198.207 283.392 179.935L284.363 179.177C294.702 192.454 305.82 209.788 300.072 216.97C297.272 220.469 290.989 220.911 281.397 218.285C275.93 216.787 269.495 214.336 262.168 210.963Z" fill="#386A1F"/>
<path d="M77.846 127.866C64.5751 121.757 52.4472 115.621 41.825 109.616C27.9409 101.766 17.389 94.5659 10.4627 88.2151C3.12962 81.4906 0.153475 75.9326 1.61694 71.6955C4.4675 63.4412 23.2612 63.2469 38.5252 64.5374L38.4215 65.7657C17.4602 63.9933 4.80265 66.2422 2.78005 72.0985C0.204037 79.5572 14.656 92.8404 42.4302 108.542C70.8697 124.621 110.186 141.664 153.138 156.533C196.09 171.403 237.524 182.315 269.809 187.259C301.338 192.087 320.899 190.579 323.475 183.12C325.614 176.927 316.034 166.675 296.5 154.252L297.16 153.212C311.353 162.239 327.642 174.825 324.638 183.523C323.175 187.76 317.405 190.29 307.49 191.043C298.125 191.754 285.384 190.891 269.623 188.477C237.267 183.522 195.756 172.591 152.736 157.698C125.749 148.355 100.184 138.151 77.846 127.866Z" fill="#386A1F"/>
<path d="M97.98 65.1462C101.942 65.1462 105.153 61.9308 105.153 57.9643C105.153 53.9978 101.942 50.7823 97.98 50.7823C94.0182 50.7823 90.8065 53.9978 90.8065 57.9643C90.8065 61.9308 94.0182 65.1462 97.98 65.1462Z" fill="#E6E6E6"/>
<path d="M239.375 152.806C241.8 152.806 243.766 150.838 243.766 148.41C243.766 145.982 241.8 144.013 239.375 144.013C236.949 144.013 234.983 145.982 234.983 148.41C234.983 150.838 236.949 152.806 239.375 152.806Z" fill="#FF6584"/>
<path d="M24.609 191.398C28.5708 191.398 31.7824 188.183 31.7824 184.216C31.7824 180.25 28.5708 177.034 24.609 177.034C20.6472 177.034 17.4355 180.25 17.4355 184.216C17.4355 188.183 20.6472 191.398 24.609 191.398Z" fill="#E6E6E6"/>
</g>
<defs>
<clipPath id="clip0_179_14351">
<rect width="325" height="246" fill="white"/>
</clipPath>
</defs>
</svg>
